<svg width="93" height="92" viewBox="0 0 93 92" fill="none" xmlns="http://www.w3.org/2000/svg">
<circle cx="46.5" cy="46" r="46" fill="#D1E3F2"/>
<g clip-path="url(#clip0)">
<path d="M24.7544 42.7654C28.1573 42.7654 30.924 40.0007 30.924 36.6002C30.924 33.1996 28.1573 30.4349 24.7544 30.4349C21.3515 30.4349 18.5848 33.1996 18.5848 36.6002C18.5848 40.0007 21.3515 42.7654 24.7544 42.7654ZM67.9417 42.7654C71.3446 42.7654 74.1113 40.0007 74.1113 36.6002C74.1113 33.1996 71.3446 30.4349 67.9417 30.4349C64.5387 30.4349 61.7721 33.1996 61.7721 36.6002C61.7721 40.0007 64.5387 42.7654 67.9417 42.7654ZM71.0265 45.8481H64.8569C63.1602 45.8481 61.6275 46.532 60.5092 47.6398C64.3941 49.7688 67.1512 53.6124 67.7489 58.1786H74.1113C75.8176 58.1786 77.1961 56.801 77.1961 55.0959V52.0133C77.1961 48.6128 74.4294 45.8481 71.0265 45.8481ZM46.348 45.8481C52.3152 45.8481 57.1449 41.0218 57.1449 35.0588C57.1449 29.0959 52.3152 24.2696 46.348 24.2696C40.3809 24.2696 35.5512 29.0959 35.5512 35.0588C35.5512 41.0218 40.3809 45.8481 46.348 45.8481ZM53.7516 48.9307H52.9515C50.9463 49.894 48.7195 50.472 46.348 50.472C43.9766 50.472 41.7594 49.894 39.7446 48.9307H38.9445C32.8135 48.9307 27.8392 53.9014 27.8392 60.0282V62.8025C27.8392 65.3553 29.9118 67.4265 32.4664 67.4265H60.2297C62.7843 67.4265 64.8569 65.3553 64.8569 62.8025V60.0282C64.8569 53.9014 59.8826 48.9307 53.7516 48.9307ZM32.1869 47.6398C31.0686 46.532 29.5359 45.8481 27.8392 45.8481H21.6696C18.2667 45.8481 15.5 48.6128 15.5 52.0133V55.0959C15.5 56.801 16.8785 58.1786 18.5848 58.1786H24.9376C25.5449 53.6124 28.3019 49.7688 32.1869 47.6398Z" fill="#4A92CE"/>
</g>
<defs>
<clipPath id="clip0">
<rect width="62" height="62" fill="white" transform="translate(15.5 15)"/>
</clipPath>
</defs>
</svg>
