<svg width="272" height="272" viewBox="0 0 272 272" fill="none" xmlns="http://www.w3.org/2000/svg">
<circle cx="136" cy="136" r="136" fill="#D1E3F2"/>
<path d="M72.1837 90.4599L29.892 118.789L71.5491 181.146L113.841 152.818L72.1837 90.4599Z" fill="#F5F5F5"/>
<path d="M91.9865 149.869L91.5078 152.843L70.4827 149.809L70.9614 146.834L91.9865 149.869Z" fill="#E0E0E0"/>
<path d="M81.3985 139.259L84.414 139.693L81.0706 160.422L78.0514 159.984L81.3985 139.259Z" fill="#E0E0E0"/>
<path d="M62.0507 112.914C62.0808 112.956 57.8442 115.851 52.586 119.368C47.3278 122.886 43.0422 125.709 43.012 125.664C42.9818 125.619 47.2185 122.728 52.4767 119.206C57.7348 115.685 62.0017 112.869 62.0507 112.914Z" fill="#E0E0E0"/>
<path d="M77.5876 109.003C77.6178 109.049 70.5692 113.819 61.8471 119.662C53.125 125.505 46.0161 130.204 45.9935 130.162C45.9708 130.121 53.0043 125.343 61.7378 119.5C70.4712 113.657 77.5575 108.958 77.5876 109.003Z" fill="#E0E0E0"/>
<path d="M80.705 113.669C80.7351 113.714 73.6865 118.489 64.9644 124.331C56.2423 130.174 49.1334 134.873 49.1108 134.828C49.0882 134.783 56.1292 130.012 64.8551 124.165C73.581 118.319 80.6748 113.623 80.705 113.669Z" fill="#E0E0E0"/>
<path d="M83.8221 118.338C83.8522 118.383 76.8036 123.158 68.0815 128.997C59.3594 134.836 52.2505 139.542 52.2505 139.497C52.2505 139.452 59.2651 134.677 67.991 128.834C76.7169 122.992 83.7919 118.292 83.8221 118.338Z" fill="#E0E0E0"/>
<path d="M86.928 123.007C86.9581 123.052 79.9095 127.823 71.1874 133.666C62.4653 139.508 55.3564 144.207 55.3376 144.162C55.3187 144.117 62.3635 139.346 71.097 133.503C79.8304 127.66 86.928 122.961 86.928 123.007Z" fill="#E0E0E0"/>
<path d="M213.602 132.244L178.084 156.036L213.068 208.405L248.586 184.613L213.602 132.244Z" fill="#F5F5F5"/>
<path d="M205.08 151.129C205.11 151.174 201.556 153.609 197.138 156.564C192.721 159.52 189.117 161.882 189.087 161.848C189.057 161.814 192.615 159.372 197.029 156.413C201.443 153.454 205.05 151.065 205.08 151.129Z" fill="#E0E0E0"/>
<path d="M218.141 147.827C218.171 147.872 212.257 151.888 204.948 156.791C197.64 161.694 191.658 165.642 191.628 165.597C191.597 165.552 197.511 161.536 204.82 156.629C212.129 151.722 218.099 147.782 218.141 147.827Z" fill="#E0E0E0"/>
<path d="M220.76 151.745C220.79 151.79 214.876 155.806 207.568 160.713C200.259 165.62 194.277 169.56 194.247 169.515C194.217 169.469 200.112 165.472 207.44 160.566C214.767 155.659 220.738 151.703 220.76 151.745Z" fill="#E0E0E0"/>
<path d="M223.376 155.659C223.406 155.704 217.489 159.72 210.184 164.627C202.879 169.534 196.893 173.474 196.863 173.429C196.833 173.383 202.747 169.371 210.056 164.461C217.364 159.55 223.35 155.621 223.376 155.659Z" fill="#E0E0E0"/>
<path d="M226.015 159.588C226.045 159.633 220.131 163.645 212.822 168.552C205.514 173.459 199.532 177.399 199.502 177.358C199.471 177.316 205.385 173.296 212.694 168.39C220.003 163.483 225.966 159.542 226.015 159.588Z" fill="#E0E0E0"/>
<path d="M157.411 92.755L118.656 71.999L88.1343 129.142L126.889 149.898L157.411 92.755Z" fill="#F5F5F5"/>
<path d="M136.2 94.1367C136.17 94.1933 132.242 92.1476 127.421 89.5697C122.601 86.9918 118.722 84.8517 118.752 84.7951C118.782 84.7385 122.714 86.7842 127.535 89.3621C132.356 91.94 136.23 94.0763 136.2 94.1367Z" fill="#E0E0E0"/>
<path d="M145.503 104.414C145.473 104.47 138.967 101.043 130.972 96.7629C122.977 92.4828 116.524 88.965 116.555 88.9084C116.585 88.8518 123.087 92.2752 131.081 96.5591C139.076 100.843 145.533 104.357 145.503 104.414Z" fill="#E0E0E0"/>
<path d="M143.219 108.69C143.188 108.747 136.683 105.324 128.688 101.04C120.693 96.7558 114.24 93.2419 114.27 93.1853C114.301 93.1286 120.803 96.5558 128.797 100.836C136.792 105.116 143.249 108.634 143.219 108.69Z" fill="#E0E0E0"/>
<path d="M140.934 112.967C140.904 113.024 134.398 109.6 126.404 105.32C118.409 101.04 111.956 97.5338 111.986 97.4658C112.016 97.3979 118.518 100.833 126.513 105.113C134.508 109.393 140.964 112.911 140.934 112.967Z" fill="#E0E0E0"/>
<path d="M138.65 117.243C138.62 117.299 132.114 113.876 124.12 109.596C116.125 105.316 109.668 101.798 109.702 101.741C109.736 101.685 116.234 105.108 124.229 109.388C132.224 113.668 138.68 117.186 138.65 117.243Z" fill="#E0E0E0"/>
<path opacity="0.2" d="M138.85 44.3145H137.878V60.9142H138.85V44.3145Z" fill="black"/>
<path d="M115.661 80.9978H161.066C161.066 80.9978 156.875 60.9219 138.021 60.9219C121.251 60.9219 115.661 80.9978 115.661 80.9978Z" fill="#4A92CE"/>
<path d="M138.85 44.3145H137.877V60.9142H138.85V44.3145Z" fill="#4A92CE"/>
<path d="M239.46 210.323C239.46 210.376 190.742 210.421 130.655 210.421C70.5691 210.421 21.8435 210.387 21.8435 210.323C21.8435 210.259 70.554 210.225 130.655 210.225C190.757 210.225 239.46 210.267 239.46 210.323Z" fill="#263238"/>
<path d="M204.288 84.1264C203.18 84.3793 202.641 85.6588 202.536 86.7911C202.43 87.9234 202.573 89.1237 202.098 90.1578C201.563 91.3204 200.285 92.1809 200.244 93.4604C200.218 94.2417 200.681 94.9702 200.659 95.759C200.621 97.0423 199.317 98.0237 199.245 99.2919C199.196 100.217 199.811 101.1 199.664 102.013C199.55 102.723 198.996 103.281 198.763 103.961C198.299 105.32 199.23 106.81 200.44 107.573C201.118 108 201.881 108.273 202.675 108.374C203.469 108.475 204.276 108.401 205.039 108.157C205.802 107.913 206.502 107.506 207.091 106.963C207.68 106.42 208.144 105.755 208.45 105.014C209.121 103.383 208.974 101.545 208.827 99.7901C208.374 94.3147 208.038 88.8318 207.816 83.3413" fill="#263238"/>
<path d="M201.069 103.444C201.297 103.302 201.475 103.092 201.578 102.843C201.687 102.548 201.731 102.233 201.706 101.919C201.665 101.503 201.573 101.093 201.431 100.7C201.251 100.205 201.184 99.6762 201.235 99.1521C201.329 98.5633 201.752 98.0802 202.132 97.6046C202.337 97.3719 202.509 97.1114 202.641 96.8309C202.774 96.5472 202.795 96.2239 202.701 95.925C202.505 95.3098 201.902 94.8569 201.627 94.1435C201.498 93.7904 201.477 93.4066 201.567 93.0414C201.652 92.699 201.779 92.3682 201.944 92.0563C202.262 91.4945 202.515 90.898 202.698 90.2786C202.962 89.0821 202.837 87.9384 203.018 86.9986C203.118 86.2459 203.452 85.5437 203.972 84.9907C204.119 84.8417 204.286 84.7146 204.469 84.6132C204.532 84.5803 204.599 84.5562 204.669 84.5415C204.433 84.6717 204.216 84.8343 204.024 85.0246C203.543 85.5832 203.24 86.2734 203.154 87.0062C203.088 87.5068 203.052 88.011 203.048 88.5159C203.047 89.1102 202.989 89.703 202.875 90.2861C202.695 90.9198 202.442 91.5303 202.121 92.1054C201.838 92.6979 201.578 93.3924 201.827 94.0416C202.076 94.6908 202.675 95.14 202.905 95.8345C203.009 96.1776 202.983 96.5469 202.833 96.8724C202.686 97.1811 202.496 97.4671 202.268 97.7216C201.891 98.1972 201.48 98.6501 201.39 99.1786C201.337 99.6798 201.396 100.186 201.563 100.662C201.698 101.068 201.781 101.489 201.812 101.915C201.83 102.243 201.772 102.572 201.642 102.874C201.561 103.063 201.431 103.227 201.265 103.349C201.206 103.392 201.14 103.424 201.069 103.444Z" fill="#455A64"/>
<path d="M198.122 112.393L194.729 122.206L180.542 122.961L178.175 128.245L192.988 129.755C193.688 130.042 194.439 130.185 195.195 130.174C195.952 130.163 196.698 129.999 197.389 129.691C198.08 129.383 198.702 128.938 199.217 128.382C199.731 127.827 200.128 127.173 200.383 126.46L204.337 115.408L198.122 112.393Z" fill="#B78876"/>
<path d="M227.451 204.989C227.451 204.989 217.055 171.918 216.833 170.846C216.633 169.873 220.602 146.075 221.107 139.896L207.059 140.421V140.561L201.088 140.893L206.433 208.5H212.897L212.257 186.061C216.245 196.776 221.959 207.699 221.959 207.699L227.451 204.989Z" fill="#B78876"/>
<path d="M212.521 194.112C212.521 193.908 212.441 186.593 212.441 186.593C212.362 187.031 209.965 180.245 210.021 179.833C210.052 179.618 212.521 194.112 212.521 194.112Z" fill="#A36957"/>
<path d="M209.75 176.618C209.717 176.752 209.703 176.891 209.709 177.029C209.688 177.406 209.688 177.784 209.709 178.161C209.709 178.399 209.742 178.656 209.773 178.935C209.803 179.214 209.844 179.509 209.908 179.815C210.042 180.482 210.22 181.14 210.44 181.785C210.907 183.155 211.427 184.351 211.793 185.219C211.966 185.597 212.117 185.955 212.245 186.242C212.291 186.376 212.355 186.503 212.434 186.62C212.414 186.489 212.376 186.362 212.321 186.242C212.234 185.993 212.102 185.635 211.944 185.193C211.612 184.31 211.114 183.102 210.651 181.747C210.432 181.112 210.252 180.464 210.112 179.807C210.044 179.505 209.999 179.214 209.957 178.943C209.916 178.671 209.886 178.414 209.867 178.188C209.822 177.72 209.803 177.342 209.791 177.078C209.799 176.923 209.785 176.769 209.75 176.618Z" fill="#A36957"/>
<path d="M206.312 208.843V208.235L212.935 207.945L212.954 210.455L212.547 210.481C210.726 210.587 203.293 210.896 202.08 210.53C200.719 210.123 206.312 208.843 206.312 208.843Z" fill="#455A64"/>
<path d="M213.041 210.304C213.003 210.307 212.965 210.307 212.927 210.304L212.603 210.327L211.405 210.38C210.395 210.421 208.996 210.459 207.454 210.466C205.913 210.474 204.511 210.448 203.497 210.417L202.302 210.368H201.974H201.861C201.898 210.365 201.936 210.365 201.974 210.368H202.302L203.5 210.391C204.511 210.391 205.909 210.421 207.451 210.414C208.992 210.406 210.395 210.38 211.405 210.353L212.603 210.323H213.041V210.304Z" fill="#263238"/>
<path d="M204.153 210.515C204.098 210.318 204.022 210.127 203.926 209.945C203.807 209.778 203.669 209.625 203.516 209.489C203.721 209.562 203.892 209.711 203.994 209.904C204.119 210.082 204.175 210.299 204.153 210.515Z" fill="#263238"/>
<path d="M206.105 209.523C206.105 209.523 205.996 209.421 205.898 209.27C205.8 209.119 205.74 208.987 205.758 208.975C205.777 208.964 205.868 209.074 205.966 209.225C206.064 209.376 206.124 209.511 206.105 209.523Z" fill="#263238"/>
<path d="M206.64 209.255C206.64 209.274 206.52 209.202 206.407 209.1C206.294 208.998 206.211 208.904 206.226 208.889C206.241 208.874 206.346 208.942 206.459 209.044C206.573 209.145 206.655 209.221 206.64 209.255Z" fill="#263238"/>
<path d="M206.976 208.613C206.865 208.654 206.747 208.669 206.629 208.658C206.514 208.674 206.396 208.662 206.286 208.624C206.396 208.584 206.513 208.569 206.629 208.579C206.746 208.563 206.865 208.575 206.976 208.613Z" fill="#263238"/>
<path d="M207.089 208.175C206.977 208.248 206.846 208.287 206.712 208.288C206.584 208.305 206.454 208.287 206.335 208.235C206.46 208.214 206.586 208.204 206.712 208.205C206.836 208.183 206.963 208.173 207.089 208.175Z" fill="#263238"/>
<path d="M205.883 208.946C205.742 208.972 205.597 208.972 205.457 208.946C205.304 208.927 205.154 208.894 205.008 208.847C204.918 208.822 204.83 208.787 204.748 208.742C204.698 208.712 204.66 208.665 204.643 208.61C204.636 208.578 204.638 208.545 204.649 208.515C204.661 208.485 204.681 208.459 204.707 208.44C204.811 208.389 204.925 208.362 205.041 208.361C205.157 208.36 205.272 208.385 205.377 208.434C205.483 208.483 205.576 208.554 205.65 208.643C205.725 208.732 205.778 208.837 205.807 208.949C205.815 208.987 205.815 209.025 205.807 209.063C205.765 208.926 205.698 208.798 205.611 208.685C205.511 208.572 205.38 208.491 205.234 208.451C205.068 208.397 204.886 208.411 204.729 208.489C204.665 208.538 204.692 208.617 204.763 208.663C204.84 208.704 204.921 208.738 205.004 208.764C205.146 208.811 205.291 208.848 205.438 208.874C205.721 208.934 205.883 208.934 205.883 208.946Z" fill="#263238"/>
<path d="M205.773 208.968C205.719 208.881 205.7 208.775 205.721 208.674C205.734 208.563 205.775 208.457 205.838 208.364C205.873 208.301 205.924 208.248 205.985 208.21C206.046 208.172 206.116 208.15 206.188 208.146C206.231 208.155 206.268 208.181 206.293 208.218C206.317 208.254 206.327 208.298 206.32 208.342C206.311 208.409 206.286 208.474 206.248 208.53C206.191 208.624 206.124 208.711 206.049 208.791C205.983 208.866 205.9 208.924 205.807 208.961C205.807 208.961 205.89 208.885 206.007 208.749C206.075 208.672 206.134 208.587 206.184 208.497C206.241 208.406 206.282 208.244 206.184 208.225C206.086 208.206 205.973 208.323 205.909 208.406C205.849 208.488 205.808 208.582 205.789 208.681C205.773 208.776 205.768 208.872 205.773 208.968Z" fill="#263238"/>
<path d="M212.901 208.5C212.901 208.5 212.713 208.5 212.415 208.519C212.027 208.565 211.66 208.72 211.356 208.965C211.051 209.209 210.821 209.535 210.692 209.904C210.594 210.187 210.587 210.379 210.572 210.376C210.557 210.372 210.572 210.327 210.572 210.244C210.581 210.122 210.604 210.002 210.64 209.885C210.76 209.499 210.99 209.156 211.303 208.9C211.62 208.648 212.004 208.497 212.407 208.466C212.533 208.451 212.659 208.451 212.784 208.466C212.825 208.472 212.864 208.484 212.901 208.5Z" fill="#263238"/>
<path d="M209.731 209.775C209.415 209.849 209.091 209.881 208.766 209.87C208.444 209.886 208.12 209.858 207.805 209.787C207.805 209.764 208.235 209.787 208.766 209.787C209.298 209.787 209.727 209.753 209.731 209.775Z" fill="#263238"/>
<path d="M211.02 209.764C211.02 209.764 210.986 209.855 210.941 209.953C210.896 210.051 210.873 210.142 210.851 210.138C210.828 210.134 210.817 210.036 210.87 209.919C210.922 209.802 211.005 209.745 211.02 209.764Z" fill="#263238"/>
<path d="M211.507 209.157C211.507 209.157 211.48 209.24 211.412 209.308C211.344 209.376 211.277 209.421 211.258 209.406C211.239 209.391 211.284 209.323 211.352 209.251C211.42 209.18 211.488 209.138 211.507 209.157Z" fill="#263238"/>
<path d="M212.2 208.877C212.2 208.9 212.11 208.9 212.012 208.934C211.914 208.968 211.846 209.021 211.827 209.006C211.808 208.991 211.865 208.9 211.985 208.858C212.106 208.817 212.208 208.855 212.2 208.877Z" fill="#263238"/>
<path d="M212.694 208.742C212.694 208.764 212.668 208.798 212.611 208.817C212.554 208.836 212.505 208.84 212.498 208.817C212.49 208.795 212.528 208.761 212.581 208.742C212.634 208.723 212.686 208.723 212.694 208.742Z" fill="#263238"/>
<path d="M221.827 208.258L221.578 207.703L227.5 204.725L228.544 206.99L228.167 207.182C226.55 208.024 219.897 211.353 218.638 211.519C217.247 211.719 221.827 208.258 221.827 208.258Z" fill="#455A64"/>
<path d="M228.566 206.828L228.468 206.888L228.178 207.039L227.108 207.583C226.203 208.032 224.944 208.639 223.538 209.281C222.132 209.923 220.843 210.47 219.908 210.859L218.796 211.308L218.495 211.425C218.46 211.441 218.423 211.452 218.385 211.459L218.487 211.41L218.785 211.278L219.886 210.806C220.817 210.406 222.098 209.847 223.504 209.205C224.91 208.564 226.173 207.967 227.085 207.53L228.163 207.013L228.461 206.873L228.566 206.828Z" fill="#263238"/>
<path d="M220.557 210.666C220.426 210.506 220.278 210.362 220.116 210.236C219.939 210.131 219.75 210.047 219.554 209.986C219.771 209.984 219.983 210.047 220.162 210.169C220.341 210.29 220.479 210.464 220.557 210.666Z" fill="#263238"/>
<path d="M221.917 208.96C221.917 208.96 221.774 208.915 221.623 208.817C221.473 208.719 221.363 208.624 221.375 208.605C221.386 208.586 221.518 208.651 221.669 208.749C221.819 208.847 221.929 208.941 221.917 208.96Z" fill="#263238"/>
<path d="M222.287 208.5C222.287 208.519 222.159 208.5 222.012 208.455C221.865 208.409 221.755 208.353 221.759 208.33C221.854 208.321 221.95 208.337 222.038 208.375C222.181 208.409 222.294 208.462 222.287 208.5Z" fill="#263238"/>
<path d="M222.34 207.775C222.34 207.798 222.215 207.877 222.042 207.96C221.942 208.02 221.83 208.058 221.714 208.07C221.714 208.047 221.838 207.968 222.008 207.885C222.109 207.825 222.222 207.788 222.34 207.775Z" fill="#263238"/>
<path d="M222.264 207.33C222.264 207.33 222.155 207.481 221.959 207.59C221.848 207.666 221.716 207.705 221.582 207.704C221.69 207.631 221.805 207.569 221.925 207.519C222.11 207.417 222.245 207.311 222.264 207.33Z" fill="#263238"/>
<path d="M221.491 208.53C221.377 208.609 221.249 208.668 221.114 208.704C220.966 208.747 220.815 208.778 220.662 208.798C220.569 208.81 220.476 208.81 220.383 208.798C220.325 208.794 220.271 208.767 220.232 208.723C220.215 208.696 220.206 208.664 220.206 208.632C220.206 208.6 220.215 208.568 220.232 208.541C220.347 208.402 220.506 208.308 220.683 208.273C220.86 208.239 221.043 208.267 221.201 208.353C221.295 208.402 221.377 208.47 221.442 208.553C221.488 208.613 221.506 208.651 221.503 208.655C221.41 208.551 221.299 208.465 221.175 208.402C221.042 208.339 220.894 208.317 220.749 208.338C220.662 208.347 220.579 208.372 220.502 208.414C220.426 208.455 220.359 208.512 220.304 208.579C220.263 208.651 220.304 208.711 220.406 208.723C220.492 208.73 220.579 208.73 220.666 208.723C220.816 208.707 220.965 208.681 221.111 208.643C221.325 208.583 221.491 208.519 221.491 208.53Z" fill="#263238"/>
<path d="M221.386 208.594C221.302 208.534 221.243 208.446 221.22 208.345C221.187 208.239 221.179 208.126 221.197 208.017C221.204 207.944 221.229 207.875 221.27 207.814C221.311 207.754 221.366 207.706 221.431 207.673C221.525 207.643 221.744 207.835 221.759 207.907C221.774 207.979 221.65 207.941 221.642 208.001C221.63 208.109 221.605 208.214 221.567 208.315C221.539 208.412 221.487 208.5 221.416 208.571C221.416 208.571 221.461 208.47 221.514 208.3C221.541 208.199 221.56 208.097 221.571 207.994C221.571 207.888 221.571 207.726 221.45 207.752C221.329 207.779 221.295 207.926 221.269 208.032C221.246 208.13 221.246 208.232 221.269 208.33C221.3 208.421 221.339 208.51 221.386 208.594Z" fill="#263238"/>
<path d="M227.699 205.239C227.699 205.239 227.518 205.303 227.262 205.458C226.927 205.658 226.654 205.948 226.474 206.296C226.3 206.646 226.226 207.038 226.26 207.428C226.282 207.73 226.354 207.903 226.339 207.911C226.314 207.874 226.295 207.833 226.282 207.79C226.245 207.675 226.218 207.556 226.203 207.435C226.149 207.034 226.219 206.625 226.402 206.263C226.586 205.902 226.876 205.605 227.232 205.412C227.339 205.353 227.451 205.305 227.567 205.269C227.61 205.252 227.654 205.242 227.699 205.239Z" fill="#263238"/>
<path d="M225.329 207.707C224.797 208.077 224.203 208.348 223.576 208.507C223.576 208.485 223.972 208.334 224.454 208.13C224.937 207.926 225.317 207.688 225.329 207.707Z" fill="#263238"/>
<path d="M226.501 207.167C226.52 207.167 226.501 207.262 226.501 207.371C226.501 207.481 226.501 207.571 226.501 207.579C226.501 207.586 226.426 207.496 226.426 207.371C226.426 207.247 226.482 207.156 226.501 207.167Z" fill="#263238"/>
<path d="M226.693 206.413C226.712 206.413 226.693 206.499 226.67 206.59C226.648 206.681 226.591 206.749 226.572 206.741C226.554 206.734 226.572 206.654 226.595 206.564C226.618 206.473 226.67 206.405 226.693 206.413Z" fill="#263238"/>
<path d="M227.213 205.858C227.213 205.88 227.138 205.914 227.062 205.986C226.987 206.058 226.946 206.133 226.927 206.126C226.908 206.118 226.927 206.012 227.01 205.926C227.093 205.839 227.209 205.858 227.213 205.858Z" fill="#263238"/>
<path d="M227.609 205.548C227.609 205.548 227.609 205.609 227.564 205.65C227.519 205.692 227.477 205.714 227.462 205.699C227.447 205.684 227.462 205.639 227.507 205.597C227.553 205.556 227.594 205.533 227.609 205.548Z" fill="#263238"/>
<path d="M220.195 128.725L219.094 115.25L224.748 115.352C224.748 115.352 225.008 113.363 224.175 109.007C223.663 106.335 221.887 104.697 219.893 103.723V103.685L219.72 103.64C218.079 102.902 216.326 102.444 214.533 102.285L207.579 102.364C207.579 102.364 202.268 101.685 199.339 105.493C198.209 106.954 194.699 116.952 194.699 116.952L203.048 120.976L202.268 115.431C202.268 115.431 202.426 119.451 202.939 120.715C203.222 121.425 204.07 123.629 204.07 123.629L203.96 130.28L220.195 128.725Z" fill="#4A92CE"/>
<path d="M216.361 113.295L215.329 117.696H225.065L224.424 110.313L216.361 113.295Z" fill="#4A92CE"/>
<path d="M225.065 117.695C224.639 117.617 224.208 117.574 223.776 117.567C222.977 117.522 221.891 117.48 220.655 117.488C219.418 117.495 218.329 117.548 217.53 117.608C217.098 117.624 216.668 117.677 216.245 117.767C216.676 117.801 217.11 117.801 217.541 117.767C218.337 117.741 219.426 117.71 220.655 117.707C221.884 117.703 222.973 117.707 223.772 117.726C224.203 117.75 224.635 117.74 225.065 117.695Z" fill="#263238"/>
<path d="M215.939 110.279C215.893 110.655 215.883 111.034 215.909 111.412C215.909 112.102 215.939 113.053 215.981 114.107C216.022 115.16 216.071 116.114 216.116 116.801C216.118 117.182 216.159 117.561 216.237 117.934C216.283 117.558 216.293 117.179 216.267 116.801C216.267 116.111 216.237 115.156 216.196 114.103C216.154 113.05 216.105 112.099 216.06 111.408C216.058 111.029 216.018 110.65 215.939 110.279Z" fill="#263238"/>
<g opacity="0.3">
<path opacity="0.3" d="M207.081 114.091C207.081 114.091 209.245 130.159 215.329 129.732C215.329 129.732 218.069 129.702 218.947 127.879V127.162L207.081 114.091Z" fill="black"/>
</g>
<g opacity="0.3">
<path opacity="0.3" d="M215.939 111.227L214.775 119.104L215.528 120.485L216.772 117.783L216.245 117.768L215.939 111.227Z" fill="black"/>
</g>
<path d="M204.036 123.637C203.964 123.519 203.908 123.392 203.87 123.259C203.776 123.014 203.651 122.655 203.493 122.206C203.116 121.036 202.805 119.845 202.562 118.639C202.32 117.433 202.166 116.211 202.102 114.982C202.08 114.51 202.072 114.129 202.08 113.85C202.07 113.713 202.079 113.576 202.106 113.442C202.136 113.442 202.159 114.023 202.238 114.952C202.344 116.169 202.516 117.38 202.754 118.579C203.033 119.983 203.369 121.24 203.625 122.142C203.746 122.561 203.847 122.919 203.93 123.214C203.982 123.35 204.017 123.492 204.036 123.637Z" fill="#263238"/>
<path d="M206.493 128.253C206.441 128.253 206.29 127.924 206.158 127.498C206.044 127.236 205.994 126.952 206.011 126.667C206.177 126.898 206.292 127.162 206.346 127.441C206.455 127.698 206.505 127.975 206.493 128.253Z" fill="#263238"/>
<path d="M207.334 128.192C207.049 127.435 207.037 126.602 207.3 125.837C207.329 126.229 207.329 126.623 207.3 127.015C207.341 127.406 207.352 127.799 207.334 128.192Z" fill="#263238"/>
<path d="M203.218 121.161C203.192 121.206 201.25 120.285 198.88 119.1C196.509 117.915 194.605 116.911 194.628 116.862C194.65 116.813 196.595 117.737 198.966 118.923C201.337 120.108 203.241 121.112 203.218 121.161Z" fill="#263238"/>
<path d="M206.64 103.666C206.682 101.756 206.693 99.7483 206.693 99.7483C206.693 99.7483 204.247 99.2765 203.821 96.0532C203.414 92.9808 204.552 85.768 204.552 85.768C208.126 84.4168 211.838 85.6434 214.285 88.5422L213.678 104.044C213.606 105.844 212.004 107.218 210.082 107.127C208.137 107.033 206.599 105.485 206.64 103.666Z" fill="#B78876"/>
<path d="M204.364 91.5322C204.361 91.638 204.398 91.7411 204.468 91.8204C204.538 91.8997 204.635 91.9492 204.741 91.9587C204.794 91.9639 204.848 91.9581 204.899 91.9417C204.951 91.9253 204.998 91.8986 205.039 91.8633C205.079 91.828 205.112 91.7848 205.135 91.7363C205.159 91.6878 205.172 91.6351 205.174 91.5813C205.177 91.4759 205.14 91.3733 205.07 91.2946C205 91.2159 204.902 91.1672 204.797 91.1586C204.744 91.1504 204.689 91.154 204.637 91.169C204.584 91.184 204.536 91.2102 204.495 91.2457C204.454 91.2812 204.421 91.3252 204.398 91.3746C204.375 91.4241 204.364 91.4778 204.364 91.5322Z" fill="#263238"/>
<path d="M204.213 90.9918C204.262 91.0446 204.59 90.8219 205.023 90.837C205.457 90.8521 205.777 91.0786 205.83 91.0257C205.883 90.9729 205.807 90.905 205.668 90.7955C205.479 90.6586 205.253 90.5834 205.02 90.5804C204.79 90.5716 204.564 90.6378 204.375 90.7691C204.236 90.871 204.187 90.9653 204.213 90.9918Z" fill="#263238"/>
<path d="M208.853 91.811C208.849 91.9171 208.886 92.0207 208.956 92.1002C209.026 92.1796 209.124 92.2289 209.23 92.2375C209.284 92.2458 209.339 92.2421 209.392 92.2269C209.444 92.2116 209.493 92.1851 209.534 92.1492C209.575 92.1133 209.608 92.0688 209.63 92.0189C209.653 91.969 209.664 91.9148 209.663 91.8601C209.668 91.7545 209.631 91.6513 209.56 91.5724C209.49 91.4935 209.392 91.4451 209.286 91.4374C209.233 91.4292 209.178 91.4328 209.126 91.4478C209.074 91.4629 209.025 91.489 208.984 91.5245C208.943 91.56 208.91 91.604 208.887 91.6534C208.865 91.7029 208.853 91.7566 208.853 91.811Z" fill="#263238"/>
<path d="M208.823 91.2713C208.872 91.3279 209.2 91.1052 209.633 91.1165C210.067 91.1278 210.387 91.3581 210.444 91.3052C210.5 91.2524 210.417 91.1845 210.278 91.0788C210.092 90.9383 209.866 90.8615 209.633 90.8599C209.403 90.853 209.176 90.919 208.985 91.0486C208.849 91.1505 208.8 91.2449 208.823 91.2713Z" fill="#263238"/>
<path d="M207.134 94.5134C206.903 94.4337 206.662 94.3843 206.418 94.3662C206.305 94.3662 206.199 94.3247 206.184 94.2492C206.175 94.1312 206.204 94.0134 206.267 93.9133L206.622 93.064C206.951 92.3422 207.222 91.595 207.432 90.8296C207.046 91.5231 206.716 92.2463 206.444 92.9923C206.328 93.2905 206.211 93.5773 206.101 93.8491C206.028 93.9839 206.004 94.1401 206.034 94.2907C206.048 94.3316 206.072 94.3686 206.104 94.3987C206.135 94.4288 206.173 94.4512 206.214 94.4643C206.277 94.4824 206.342 94.4926 206.407 94.4945C206.647 94.5316 206.892 94.538 207.134 94.5134Z" fill="#263238"/>
<path d="M206.693 99.7484C208.201 99.8089 209.696 99.4496 211.013 98.7104C211.013 98.7104 209.916 100.888 206.716 100.507L206.693 99.7484Z" fill="#A36957"/>
<path d="M210.24 89.9841C210.15 90.1237 209.81 90.0634 209.433 89.9841C209.056 89.9048 208.725 89.8407 208.68 89.6784C208.634 89.5161 209.03 89.3009 209.535 89.4028C210.04 89.5047 210.33 89.8633 210.24 89.9841Z" fill="#263238"/>
<path d="M205.841 89.3426C205.807 89.5048 205.446 89.5652 205.031 89.5841C204.616 89.603 204.251 89.5841 204.202 89.418C204.153 89.252 204.503 89.018 205.005 88.9953C205.506 88.9727 205.875 89.1878 205.841 89.3426Z" fill="#263238"/>
<path d="M207.142 95.5737C207.094 95.5624 207.044 95.5675 207 95.588C206.955 95.6085 206.919 95.6434 206.897 95.687C206.875 95.7255 206.864 95.7689 206.865 95.813C206.865 95.8571 206.877 95.9002 206.899 95.9383C206.922 95.9763 206.954 96.0078 206.992 96.0297C207.03 96.0516 207.073 96.0631 207.117 96.0631C207.161 96.0631 207.205 96.0516 207.243 96.0297C207.281 96.0078 207.313 95.9763 207.335 95.9383C207.357 95.9002 207.369 95.8571 207.37 95.813C207.37 95.7689 207.359 95.7255 207.338 95.687C207.311 95.6363 207.267 95.5963 207.215 95.5737C207.162 95.551 207.103 95.5471 207.048 95.5624" fill="#A36957"/>
<path d="M207.243 95.6191C207.243 95.6002 207.172 95.4908 206.98 95.5323C206.922 95.5473 206.87 95.5772 206.827 95.6189C206.785 95.6606 206.754 95.7127 206.738 95.7701C206.718 95.8423 206.72 95.919 206.743 95.9903C206.767 96.0615 206.811 96.1242 206.87 96.1702C206.933 96.2132 207.007 96.2362 207.083 96.2362C207.159 96.2362 207.234 96.2132 207.296 96.1702C207.346 96.1363 207.386 96.0889 207.41 96.0334C207.434 95.9779 207.442 95.9166 207.432 95.8569C207.394 95.6568 207.247 95.6266 207.24 95.6531C207.232 95.6795 207.292 95.7474 207.281 95.8644C207.279 95.8933 207.269 95.9212 207.253 95.9455C207.237 95.9699 207.216 95.99 207.191 96.0041C207.161 96.021 207.128 96.0299 207.095 96.0299C207.061 96.0299 207.028 96.021 206.998 96.0041C206.972 95.9817 206.952 95.953 206.94 95.9205C206.928 95.8881 206.925 95.8532 206.931 95.8191C206.935 95.7893 206.946 95.761 206.964 95.7367C206.982 95.7123 207.005 95.6927 207.032 95.6795C207.138 95.6153 207.232 95.6455 207.243 95.6191Z" fill="#263238"/>
<path d="M212.822 92.3281C212.445 93.2113 211.51 93.8945 211.639 94.8494C211.721 95.4647 212.117 96.0384 212.042 96.6574C211.944 97.4122 211.141 97.9708 211.024 98.7446C210.885 99.692 211.808 100.428 212.174 101.311C212.713 102.602 212.027 104.051 212.008 105.463C212.03 106.535 212.44 107.562 213.16 108.355C213.881 109.147 214.864 109.651 215.928 109.773C216.787 109.845 217.756 109.585 218.19 108.845C218.566 108.233 218.484 107.456 218.702 106.78C219.034 105.769 219.995 105.029 220.21 103.987C220.587 102.1 218.288 100.515 218.438 98.5823C218.502 97.7557 219.011 97.0386 219.226 96.2384C219.363 95.7125 219.373 95.1617 219.257 94.631C219.14 94.1003 218.9 93.6047 218.555 93.1849C217.986 92.5093 217.164 92.0526 216.671 91.3279C216.124 90.4938 216.105 89.4407 215.917 88.4556C215.664 87.2582 215.111 86.1447 214.312 85.2189C213.512 84.2932 212.491 83.5856 211.345 83.1623C210.198 82.7389 208.963 82.6136 207.754 82.798C206.546 82.9825 205.404 83.4707 204.435 84.217C204.435 84.217 203.889 86.7043 206.441 87.1233C208.992 87.5422 210.172 87.0591 210.459 88.082C210.391 88.5033 210.424 88.9347 210.555 89.3408C210.686 89.7469 210.912 90.1161 211.213 90.4183C212.253 91.5431 213.244 91.3015 212.822 92.3281Z" fill="#263238"/>
<path d="M216.874 109.581C216.795 109.584 216.717 109.576 216.64 109.558C216.419 109.519 216.202 109.46 215.992 109.381C215.214 109.082 214.531 108.577 214.017 107.92C213.656 107.467 213.374 106.957 213.18 106.41C212.96 105.788 212.844 105.134 212.837 104.474C212.829 103.747 212.921 103.022 213.108 102.319C213.211 101.948 213.337 101.584 213.485 101.228C213.641 100.874 213.778 100.513 213.896 100.145C214 99.7823 214 99.3978 213.896 99.0352C213.786 98.6783 213.643 98.3321 213.47 98.0011C213.296 97.6728 213.148 97.3307 213.029 96.9782C212.913 96.6293 212.886 96.257 212.95 95.8949C213.101 95.1854 213.531 94.6569 213.787 94.1172C214.031 93.6176 214.148 93.0651 214.126 92.5093C214.092 91.6959 213.797 90.9152 213.286 90.2824C213.087 90.0608 212.875 89.8527 212.649 89.6597C212.913 89.8084 213.149 90.0026 213.346 90.2334C213.895 90.8652 214.218 91.6619 214.266 92.498C214.297 93.078 214.183 93.6567 213.934 94.1814C213.674 94.74 213.255 95.2722 213.127 95.9214C212.999 96.5706 213.304 97.2537 213.64 97.9105C213.823 98.251 213.972 98.6088 214.085 98.9786C214.196 99.3735 214.196 99.7915 214.085 100.186C213.959 100.567 213.815 100.941 213.651 101.307C213.503 101.655 213.377 102.012 213.274 102.376C213.087 103.06 212.995 103.768 212.999 104.478C212.987 105.687 213.377 106.866 214.107 107.83C214.595 108.478 215.245 108.987 215.992 109.305C216.554 109.524 216.878 109.558 216.874 109.581Z" fill="#455A64"/>
<path d="M216.497 90.535C216.313 90.5826 216.125 90.6105 215.936 90.6181C215.418 90.6735 214.896 90.6595 214.383 90.5765C213.993 90.5188 213.619 90.3839 213.283 90.1798C212.946 89.9756 212.654 89.7063 212.423 89.3876C212.207 88.9844 212.035 88.5592 211.91 88.1194C211.749 87.6801 211.447 87.3069 211.051 87.0588C210.225 86.5342 209.256 86.47 208.412 86.3681C207.633 86.3292 206.877 86.0929 206.214 85.6812C205.771 85.3867 205.45 84.9395 205.314 84.4243C205.281 84.2847 205.272 84.1404 205.287 83.9978C205.287 83.8997 205.31 83.8506 205.317 83.8506C205.322 84.0375 205.346 84.2235 205.389 84.4054C205.545 84.8872 205.865 85.2987 206.294 85.5679C206.944 85.9479 207.678 86.1606 208.431 86.1869C209.275 86.2851 210.278 86.3341 211.16 86.8927C211.591 87.1642 211.92 87.5719 212.095 88.0515C212.213 88.4801 212.376 88.8951 212.581 89.2895C213.02 89.8925 213.678 90.2991 214.413 90.4218C214.91 90.5143 215.416 90.5485 215.92 90.5237C216.113 90.5129 216.305 90.5167 216.497 90.535Z" fill="#455A64"/>
<path d="M215.562 87.4629C215.42 87.5105 215.271 87.5322 215.121 87.5271C214.419 87.5318 213.742 87.2608 213.237 86.7722C213.006 86.5407 212.809 86.2776 212.652 85.9909C212.313 85.4172 211.985 84.7114 211.28 84.417C210.601 84.1889 209.878 84.1255 209.169 84.232C208.572 84.3161 207.965 84.3161 207.368 84.232C206.952 84.1743 206.56 84.0018 206.237 83.7338C206.153 83.6609 206.08 83.5771 206.018 83.4847C205.973 83.4193 205.954 83.3853 205.962 83.3828C205.962 83.3828 206.067 83.5036 206.286 83.6734C206.608 83.903 206.983 84.0483 207.375 84.0962C207.962 84.1624 208.555 84.1523 209.139 84.066C209.879 83.9451 210.636 84.0099 211.344 84.2547C211.708 84.4185 212.02 84.6797 212.245 85.0096C212.444 85.3038 212.626 85.6087 212.792 85.923C212.94 86.1973 213.124 86.4511 213.338 86.6778C213.527 86.8696 213.745 87.0313 213.983 87.1572C214.333 87.3405 214.719 87.4473 215.114 87.4705C215.404 87.4667 215.558 87.444 215.562 87.4629Z" fill="#455A64"/>
<path d="M217.997 108.766C217.978 108.766 218.099 108.517 218.239 108.049C218.427 107.392 218.511 106.709 218.487 106.025C218.46 105.014 218.184 104.025 217.684 103.146C217.409 102.651 216.991 102.21 216.648 101.666C216.466 101.389 216.339 101.081 216.271 100.756C216.212 100.415 216.24 100.064 216.354 99.7373C216.565 99.0844 216.942 98.5371 217.025 97.937C217.108 97.3368 216.821 96.8047 216.535 96.3027C216.387 96.0584 216.252 95.8064 216.132 95.5478C216.021 95.297 215.949 95.0311 215.917 94.7589C215.881 94.2793 215.896 93.7973 215.962 93.3209C216.082 92.6474 216.02 91.9539 215.781 91.3129C215.674 91.0884 215.523 90.888 215.336 90.7241C215.336 90.7241 215.355 90.7241 215.381 90.7468C215.426 90.769 215.467 90.7983 215.502 90.8336C215.65 90.9565 215.769 91.1097 215.853 91.2827C216.125 91.9292 216.21 92.6396 216.098 93.3322C216.046 93.7998 216.039 94.2713 216.079 94.7401C216.172 95.2674 216.38 95.7675 216.689 96.2045C216.85 96.4596 216.988 96.7287 217.1 97.0085C217.219 97.3105 217.258 97.6381 217.213 97.9596C217.123 98.6201 216.735 99.1787 216.539 99.794C216.436 100.091 216.409 100.409 216.459 100.719C216.525 101.019 216.645 101.304 216.814 101.56C217.134 102.085 217.568 102.534 217.843 103.051C218.348 103.96 218.617 104.982 218.627 106.022C218.639 106.718 218.532 107.411 218.31 108.071C218.25 108.25 218.177 108.424 218.092 108.592C218.069 108.654 218.037 108.713 217.997 108.766Z" fill="#455A64"/>
<path d="M202.645 179.094C202.645 179.094 200.104 154.998 199.957 146.094C199.81 137.19 203.957 128.404 203.957 128.404L220.195 127.728C220.195 127.728 223.406 136.76 223.463 140.561C223.576 147.936 221.506 155.217 221.744 161.067L222.287 179.109" fill="#263238"/>
<path d="M222.833 149.469C222.749 149.542 222.659 149.61 222.566 149.673L222.419 149.774L222.26 149.929C222.121 150.05 221.994 150.185 221.883 150.333C221.359 150.975 220.979 152.126 220.613 153.556C220.426 154.35 220.151 155.12 219.791 155.851C219.682 156.052 219.556 156.242 219.414 156.421C219.347 156.512 219.283 156.61 219.203 156.697L218.955 156.946C218.598 157.279 218.185 157.545 217.733 157.731C216.825 158.131 215.796 158.32 214.861 158.791C213.904 159.307 213.164 160.152 212.777 161.169C212.317 162.192 212.023 163.264 211.646 164.268C211.269 165.272 210.76 166.231 209.95 166.842C209.175 167.381 208.255 167.672 207.311 167.676C206.437 167.729 205.626 167.703 204.899 167.812C204.244 167.88 203.618 168.117 203.082 168.499C202.691 168.806 202.397 169.22 202.238 169.692C202.137 169.989 202.115 170.308 202.174 170.617C202.219 170.828 202.276 170.93 202.264 170.934C202.204 170.839 202.16 170.734 202.136 170.624C202.057 170.309 202.067 169.978 202.166 169.669C202.316 169.174 202.612 168.736 203.014 168.412C203.564 167.997 204.215 167.736 204.899 167.657C205.653 167.537 206.456 167.552 207.319 167.495C208.235 167.489 209.127 167.205 209.878 166.68C210.64 166.013 211.202 165.148 211.503 164.181C211.88 163.189 212.155 162.113 212.634 161.071C213.039 160.012 213.813 159.134 214.812 158.599C215.785 158.116 216.814 157.931 217.699 157.546C218.133 157.366 218.531 157.111 218.875 156.791L219.113 156.553C219.188 156.47 219.252 156.376 219.32 156.289C219.453 156.117 219.57 155.934 219.671 155.742C220.032 155.02 220.311 154.261 220.504 153.477C220.881 152.05 221.292 150.884 221.846 150.239C221.956 150.092 222.082 149.957 222.223 149.839C222.283 149.786 222.336 149.733 222.388 149.691L222.543 149.593C222.637 149.546 222.734 149.504 222.833 149.469Z" fill="#FAFAFA"/>
<path d="M222.931 138.319C222.949 138.425 222.956 138.532 222.954 138.64C222.953 138.951 222.915 139.262 222.841 139.564C222.516 140.668 221.878 141.655 221.005 142.403C220.429 142.933 219.797 143.4 219.12 143.795C218.393 144.226 217.59 144.637 216.765 145.105C215.898 145.571 215.09 146.14 214.36 146.8C213.611 147.544 212.994 148.411 212.536 149.363C212.073 150.327 211.546 151.259 210.956 152.152C210.657 152.568 210.31 152.948 209.923 153.284C209.542 153.609 209.123 153.886 208.676 154.111C207.866 154.509 207.022 154.834 206.154 155.081C205.348 155.33 204.594 155.553 203.938 155.836C203.343 156.073 202.776 156.377 202.249 156.742C201.853 157.017 201.496 157.346 201.19 157.719C200.934 158.043 200.719 158.398 200.553 158.776C200.58 158.671 200.615 158.569 200.659 158.47C200.782 158.185 200.94 157.916 201.13 157.67C201.43 157.281 201.786 156.938 202.185 156.651C202.714 156.273 203.285 155.957 203.885 155.707C204.611 155.411 205.352 155.153 206.105 154.934C206.961 154.681 207.793 154.355 208.593 153.96C209.017 153.738 209.415 153.47 209.78 153.16C210.152 152.828 210.486 152.456 210.775 152.05C211.357 151.162 211.879 150.236 212.34 149.28C212.812 148.307 213.45 147.423 214.224 146.668C214.967 145.998 215.79 145.422 216.674 144.954C217.503 144.49 218.306 144.086 219.034 143.66C219.708 143.278 220.34 142.825 220.918 142.308C221.784 141.583 222.427 140.626 222.773 139.549C222.87 139.146 222.923 138.734 222.931 138.319Z" fill="#FAFAFA"/>
<path d="M200.04 147.355C200.025 147.331 200.014 147.306 200.006 147.279C199.978 147.207 199.954 147.132 199.935 147.057C199.87 146.756 199.883 146.445 199.972 146.151C200.184 145.396 201.017 144.426 202.358 143.947C203.029 143.716 203.787 143.569 204.579 143.373C205.236 143.264 205.858 142.999 206.392 142.6C206.926 142.202 207.358 141.681 207.651 141.082C207.865 140.642 208.052 140.189 208.212 139.727C208.507 138.722 208.907 137.752 209.407 136.832C209.98 135.928 210.848 135.251 211.865 134.918C212.789 134.618 213.732 134.378 214.688 134.201C215.541 134.037 216.366 133.755 217.142 133.363C217.798 132.988 218.364 132.472 218.8 131.853C219.444 130.96 219.811 129.897 219.855 128.796C219.857 128.392 219.831 127.989 219.776 127.588C219.89 127.98 219.942 128.388 219.931 128.796C219.916 129.921 219.561 131.014 218.913 131.933C218.472 132.572 217.894 133.104 217.221 133.492C216.435 133.898 215.597 134.192 214.729 134.363C213.782 134.543 212.848 134.784 211.932 135.084C210.957 135.404 210.123 136.054 209.573 136.922C209.081 137.83 208.686 138.786 208.393 139.776C208.23 140.247 208.038 140.707 207.816 141.154C207.593 141.582 207.309 141.977 206.972 142.324C206.31 142.928 205.495 143.339 204.616 143.512C203.817 143.716 203.063 143.845 202.404 144.064C201.096 144.509 200.266 145.426 200.044 146.158C199.953 146.441 199.928 146.74 199.972 147.034C200.004 147.139 200.027 147.246 200.04 147.355Z" fill="#FAFAFA"/>
<path d="M221.537 167.736C221.552 167.815 221.561 167.894 221.563 167.974C221.57 168.203 221.546 168.431 221.491 168.654C221.255 169.472 220.754 170.189 220.067 170.692C219.608 171.058 219.101 171.357 218.559 171.582C217.982 171.828 217.345 172.024 216.674 172.232C215.978 172.435 215.296 172.688 214.635 172.986C213.948 173.315 213.332 173.775 212.822 174.342C212.272 174.915 211.797 175.546 211.269 176.104C210.764 176.645 210.178 177.104 209.532 177.463C208.431 178.064 207.2 178.386 205.947 178.399C205.107 178.408 204.273 178.269 203.482 177.988C203.267 177.913 203.058 177.824 202.856 177.72C202.783 177.689 202.713 177.65 202.649 177.603C202.725 177.623 202.799 177.65 202.871 177.682C203.078 177.77 203.29 177.849 203.504 177.916C204.294 178.164 205.119 178.28 205.947 178.259C207.173 178.228 208.373 177.9 209.445 177.304C210.071 176.949 210.639 176.5 211.13 175.972C211.646 175.421 212.117 174.794 212.679 174.206C213.219 173.618 213.87 173.144 214.594 172.809C215.265 172.509 215.956 172.257 216.663 172.054C217.326 171.85 217.96 171.677 218.548 171.428C219.074 171.212 219.568 170.926 220.018 170.578C220.693 170.101 221.197 169.418 221.454 168.631C221.509 168.336 221.537 168.036 221.537 167.736Z" fill="#FAFAFA"/>
<path d="M219.686 117.711L216.542 117.786C216.421 118.421 216.181 119.027 215.834 119.571C213.195 115.004 211.171 108.89 210.666 106.433C210.741 106.187 210.828 105.916 210.937 105.614C211.016 105.155 211.002 104.685 210.896 104.232C210.805 103.685 210.655 102.949 210.609 102.609C210.47 101.568 210.3 101.405 209.939 101.522C209.449 101.685 210.142 104.44 209.739 104.5C209.52 104.53 209.256 103.587 209.181 102.813C209.106 102.039 208.751 99.6539 208.499 99.4954C208.122 99.2614 207.794 99.6313 207.892 100.401C207.99 101.171 208.107 103.511 207.7 103.545C207.292 103.579 206.946 99.6237 206.946 99.6237C206.946 99.6237 207.01 98.7632 206.535 98.782C205.683 98.8198 206.35 102.987 206.422 103.383C206.475 103.655 206.045 103.708 205.992 103.409C205.939 103.111 205.743 99.4577 204.861 99.4879C204.19 99.4879 205.378 102.919 205.001 103.711C204.624 104.504 204.368 101.024 203.731 101.069C203.493 101.088 203.316 101.133 203.753 103.1C204.172 104.662 204.675 106.201 205.261 107.708C206.271 113.162 210.704 130.611 217.65 127.418C221.54 125.629 223.116 117.711 223.116 117.711H219.686Z" fill="#B78876"/>
<path d="M206.286 103.647C206.316 103.655 206.347 103.655 206.377 103.647C206.422 103.633 206.461 103.604 206.487 103.564C206.512 103.524 206.523 103.476 206.516 103.428C206.516 103.194 206.471 102.855 206.418 102.413C206.33 101.881 206.272 101.344 206.245 100.805C206.245 100.488 206.245 100.149 206.264 99.79C206.269 99.6077 206.288 99.426 206.32 99.2465C206.35 99.0766 206.463 98.869 206.595 98.903H206.618C206.75 98.903 206.855 99.0011 206.897 99.1597C206.943 99.3239 206.961 99.4951 206.95 99.6654C207.027 100.722 207.162 101.775 207.353 102.817C207.383 102.957 207.413 103.1 207.458 103.244C207.478 103.317 207.504 103.389 207.534 103.459C207.553 103.498 207.574 103.535 207.598 103.572C207.615 103.6 207.638 103.623 207.665 103.64C207.693 103.657 207.724 103.667 207.756 103.67C207.811 103.664 207.863 103.642 207.905 103.606C207.948 103.571 207.978 103.523 207.994 103.47C208.026 103.396 208.05 103.319 208.065 103.24C208.095 103.088 208.115 102.934 208.126 102.779C208.16 102.15 208.151 101.52 208.099 100.892C208.051 100.579 208.039 100.261 208.061 99.9447C208.075 99.8081 208.141 99.6823 208.246 99.5937C208.27 99.5793 208.297 99.5702 208.325 99.567C208.353 99.5637 208.381 99.5664 208.408 99.5748C208.44 99.5825 208.471 99.5953 208.499 99.6126C208.518 99.6269 208.532 99.6466 208.54 99.6692C208.659 99.9753 208.746 100.293 208.8 100.617C208.868 100.949 208.925 101.292 208.977 101.636C209.03 101.979 209.079 102.326 209.121 102.677C209.153 103.04 209.211 103.399 209.294 103.753C209.339 103.934 209.395 104.112 209.464 104.285C209.502 104.382 209.556 104.473 209.622 104.553C209.647 104.587 209.682 104.612 209.721 104.627C209.761 104.642 209.803 104.645 209.844 104.636C209.883 104.624 209.917 104.601 209.944 104.572C209.971 104.542 209.99 104.506 209.999 104.466C210.043 104.274 210.057 104.075 210.04 103.878C210.04 103.689 210.018 103.5 209.999 103.319C209.973 103.002 209.942 102.689 209.931 102.379C209.922 102.227 209.922 102.075 209.931 101.923C209.939 101.855 209.955 101.789 209.98 101.726C209.988 101.705 209.999 101.686 210.014 101.67H210.063C210.312 101.568 210.395 101.915 210.463 102.194C210.53 102.474 210.557 102.791 210.617 103.089C210.715 103.681 210.843 104.274 210.907 104.84C210.951 105.111 210.941 105.388 210.877 105.655C210.787 105.927 210.696 106.195 210.61 106.463V106.49V106.512C211.051 108.366 211.614 110.19 212.294 111.97C212.89 113.582 213.489 114.989 214.013 116.122C214.537 117.254 215.012 118.141 215.336 118.737L215.713 119.413C215.754 119.494 215.803 119.569 215.86 119.639C215.828 119.556 215.789 119.475 215.743 119.398L215.366 118.707C215.057 118.1 214.613 117.197 214.1 116.065C213.587 114.933 213.007 113.525 212.426 111.913C211.762 110.136 211.211 108.318 210.775 106.471V106.523C210.862 106.259 210.949 105.991 211.039 105.723C211.118 105.429 211.133 105.122 211.084 104.821C211.017 104.229 210.892 103.655 210.794 103.059C210.738 102.764 210.7 102.462 210.64 102.153C210.636 101.994 210.609 101.836 210.561 101.685C210.518 101.593 210.444 101.518 210.353 101.473C210.256 101.442 210.152 101.442 210.055 101.473H209.995C209.963 101.484 209.934 101.5 209.908 101.522C209.867 101.558 209.834 101.603 209.814 101.655C209.78 101.736 209.758 101.823 209.75 101.911C209.739 102.075 209.739 102.238 209.75 102.402C209.75 102.719 209.795 103.036 209.822 103.353C209.822 103.538 209.852 103.73 209.859 103.9C209.874 104.071 209.866 104.242 209.833 104.41C209.833 104.448 209.803 104.44 209.833 104.459L209.81 104.436C209.762 104.375 209.724 104.306 209.697 104.232C209.632 104.069 209.577 103.901 209.535 103.73C209.453 103.387 209.396 103.037 209.366 102.685C209.325 102.33 209.276 101.979 209.219 101.632C209.166 101.285 209.106 100.945 209.038 100.605C208.981 100.259 208.885 99.9214 208.751 99.5975C208.725 99.5434 208.685 99.4976 208.634 99.4654C208.59 99.4399 208.544 99.4196 208.495 99.405C208.441 99.3909 208.385 99.3876 208.33 99.3954C208.275 99.4032 208.222 99.4218 208.175 99.4503C208.097 99.5085 208.032 99.5821 207.984 99.6665C207.936 99.7509 207.906 99.8444 207.896 99.941C207.871 100.112 207.871 100.287 207.896 100.458C207.896 100.62 207.933 100.779 207.945 100.937C207.997 101.555 208.008 102.175 207.979 102.794C207.97 102.941 207.951 103.088 207.922 103.232C207.911 103.3 207.892 103.366 207.865 103.428C207.856 103.453 207.842 103.476 207.824 103.496C207.824 103.53 207.798 103.496 207.801 103.542C207.801 103.504 207.801 103.542 207.801 103.493C207.785 103.467 207.77 103.441 207.756 103.413C207.73 103.353 207.707 103.285 207.685 103.221C207.643 103.085 207.613 102.945 207.583 102.809C207.386 101.776 207.244 100.733 207.157 99.6843C207.168 99.4945 207.146 99.3043 207.093 99.1219C207.068 99.0268 207.017 98.9405 206.946 98.8728C206.909 98.8371 206.865 98.8093 206.817 98.7912C206.769 98.773 206.718 98.7648 206.667 98.7671H206.689C206.626 98.7578 206.561 98.7675 206.502 98.795C206.444 98.8225 206.395 98.8667 206.362 98.9219C206.305 99.0119 206.267 99.1118 206.248 99.2163C206.217 99.4034 206.199 99.5927 206.196 99.7824C206.196 100.16 206.196 100.488 206.196 100.809C206.231 101.351 206.301 101.891 206.403 102.425C206.467 102.862 206.516 103.202 206.539 103.432C206.546 103.473 206.539 103.514 206.519 103.55C206.499 103.586 206.467 103.613 206.429 103.629C206.316 103.64 206.282 103.644 206.286 103.647Z" fill="#A36957"/>
<path d="M181.737 122.908C181.001 122.892 180.267 122.977 179.554 123.161C177.606 123.674 174.247 125.712 174.108 128.23H176.55C176.55 128.23 175.182 131.144 175.581 130.872C176.626 130.17 178.699 128.06 178.699 128.06L181.737 122.908Z" fill="#B78876"/>
<path d="M215.031 79.0385C214.974 79.0385 214.756 77.023 214.537 74.5092C214.318 71.9955 214.183 69.98 214.236 69.98C214.288 69.98 214.511 71.9955 214.729 74.5092C214.948 77.023 215.084 79.0385 215.031 79.0385Z" fill="#263238"/>
<path d="M225.739 70.1346C225.781 70.1648 224.134 72.5615 222.057 75.4866C219.98 78.4118 218.257 80.7708 218.212 80.7255C218.167 80.6802 219.818 78.2986 221.895 75.3734C223.972 72.4483 225.694 70.1044 225.739 70.1346Z" fill="#263238"/>
<path d="M230.187 80.9974C230.187 81.0502 228.272 81.4918 225.89 81.9825C223.508 82.4732 221.563 82.828 221.552 82.7751C221.54 82.7223 223.463 82.2807 225.849 81.79C228.235 81.2994 230.161 80.9446 230.187 80.9974Z" fill="#263238"/>
<path d="M102.005 132.839L88.6619 201.457L86.928 210.44L175.883 210.01C179.879 209.991 183.422 206.439 184.7 201.163L200.478 136.383C201.454 132.378 199.313 128.212 196.283 128.215L106.227 128.31C104.267 128.306 102.51 130.163 102.005 132.839Z" fill="#4A92CE"/>
<g opacity="0.5">
<path opacity="0.5" d="M102.005 132.839L88.6619 201.457L86.928 210.44L175.883 210.01C179.879 209.991 183.422 206.439 184.7 201.163L200.478 136.383C201.454 132.378 199.313 128.212 196.283 128.215L106.227 128.31C104.267 128.306 102.51 130.163 102.005 132.839Z" fill="black"/>
</g>
<path d="M167.361 196.799L157.938 120.78C157.561 117.666 155.077 115.341 152.148 115.352L131.492 115.416C130.725 115.425 129.967 115.59 129.265 115.901C128.563 116.213 127.932 116.664 127.41 117.228L117.61 127.672L60.166 127.981C56.6568 128 53.9579 131.329 54.4216 135.066L63.1701 205.326C63.547 208.436 66.031 210.757 68.9522 210.753L169.083 210.553C180.233 210.784 181.3 207.489 181.3 207.489C168.499 210.323 167.361 196.818 167.361 196.799Z" fill="#4A92CE"/>
<path d="M181.658 83.4854C181.536 83.4339 181.431 83.3487 181.355 83.2397C181.28 83.1308 181.237 83.0026 181.232 82.8701L181.081 79.3675C181.076 79.2587 181.096 79.1501 181.139 79.0504C181.183 78.9506 181.25 78.8625 181.333 78.7929C181.417 78.7233 181.516 78.6742 181.622 78.6495C181.728 78.6247 181.838 78.625 181.944 78.6504C182.236 78.7134 182.538 78.7162 182.831 78.6584C183.124 78.6006 183.402 78.4836 183.648 78.3145C183.874 78.1708 184.069 77.9821 184.22 77.7601C184.371 77.5381 184.475 77.2874 184.526 77.0236C184.56 76.7565 184.54 76.4852 184.468 76.2259C184.395 75.9665 184.272 75.7244 184.104 75.5139C183.927 75.2743 183.705 75.072 183.45 74.9185C183.195 74.765 182.913 74.6633 182.619 74.6193C182.026 74.5863 181.439 74.7547 180.953 75.0972C180.467 75.4396 180.111 75.9362 179.943 76.5065C179.886 76.6793 179.766 76.8237 179.606 76.9096C179.446 76.9955 179.259 77.0163 179.084 76.9677C178.909 76.919 178.76 76.8047 178.667 76.6485C178.574 76.4922 178.545 76.3062 178.586 76.1291C178.842 75.2321 179.399 74.4508 180.163 73.9167C180.927 73.3827 181.852 73.1283 182.781 73.1964C183.265 73.2609 183.73 73.4221 184.151 73.6705C184.571 73.9188 184.937 74.2492 185.227 74.642C185.509 75.006 185.716 75.4231 185.834 75.8685C185.953 76.3139 185.981 76.7785 185.917 77.235C185.831 77.6908 185.653 78.1241 185.394 78.5084C185.135 78.8927 184.8 79.2198 184.409 79.4694C183.844 79.8506 183.183 80.0663 182.502 80.0922L182.619 82.7946C182.623 82.9134 182.598 83.0313 182.544 83.1375C182.491 83.2436 182.412 83.3346 182.314 83.402C182.216 83.4694 182.103 83.511 181.985 83.5229C181.867 83.5348 181.748 83.5167 181.639 83.4703L181.658 83.4854Z" fill="#4A92CE"/>
<path d="M182.69 84.9199C182.698 85.0339 182.672 85.1476 182.616 85.2468C182.559 85.346 182.474 85.4261 182.372 85.477C182.27 85.5279 182.155 85.5474 182.042 85.5329C181.929 85.5183 181.822 85.4705 181.736 85.3955C181.65 85.3204 181.588 85.2215 181.558 85.1112C181.529 85.001 181.532 84.8843 181.568 84.776C181.605 84.6677 181.672 84.5726 181.763 84.5028C181.853 84.433 181.962 84.3917 182.076 84.3839C182.152 84.3783 182.227 84.3877 182.299 84.4116C182.371 84.4356 182.438 84.4736 182.495 84.5235C182.552 84.5733 182.599 84.634 182.632 84.7021C182.666 84.7701 182.686 84.8441 182.69 84.9199Z" fill="#4A92CE"/>
<path d="M169.547 78.5448C169.563 78.4701 169.574 78.3945 169.581 78.3183C169.581 78.1523 169.622 77.9409 169.652 77.6427C169.689 77.2766 169.751 76.9135 169.837 76.5557C169.886 76.3443 169.912 76.1103 169.988 75.8725C170.063 75.6348 170.139 75.3781 170.221 75.1177C170.658 73.8273 171.294 72.6135 172.106 71.5207C173.171 70.1055 174.52 68.9302 176.068 68.0709C176.948 67.5737 177.886 67.1858 178.861 66.9159C179.912 66.6368 180.996 66.4947 182.083 66.4932C182.657 66.484 183.23 66.5143 183.798 66.5838C184.089 66.614 184.375 66.6895 184.665 66.7385C184.959 66.7889 185.249 66.8595 185.532 66.9499C186.72 67.2824 187.851 67.7954 188.883 68.471C191.18 69.9623 192.929 72.1616 193.866 74.7365C194.371 76.1157 194.626 77.574 194.62 79.043C194.636 80.5563 194.368 82.0592 193.832 83.4742L193.663 83.9044L193.64 83.9611L193.663 84.0177C194.609 86.1955 195.547 88.3356 196.433 90.4077L196.591 90.2265L190.938 88.0563L190.87 88.0298L190.813 88.0827C189.317 89.5338 187.486 90.5919 185.483 91.1626C183.772 91.6344 181.98 91.7374 180.225 91.4648C178.471 91.1922 176.795 90.5502 175.306 89.5811C174.087 88.7806 173.013 87.7788 172.129 86.6182C170.848 84.9242 170.017 82.9318 169.716 80.8283C169.671 80.4509 169.633 80.1338 169.6 79.847C169.566 79.5601 169.6 79.3261 169.581 79.1261C169.562 78.926 169.581 78.7939 169.581 78.6845C169.6 78.6816 169.617 78.6717 169.628 78.6569C169.64 78.642 169.646 78.6231 169.645 78.6042C169.643 78.5852 169.635 78.5674 169.621 78.5545C169.607 78.5415 169.588 78.5343 169.569 78.5343C169.55 78.5343 169.532 78.5415 169.518 78.5545C169.504 78.5674 169.496 78.5852 169.494 78.6042C169.493 78.6231 169.499 78.642 169.51 78.6569C169.522 78.6717 169.539 78.6816 169.558 78.6845C169.558 78.7939 169.558 78.9411 169.558 79.1261C169.558 79.311 169.558 79.5677 169.558 79.8545C169.558 80.1414 169.622 80.4697 169.66 80.8434C169.784 81.7512 170 82.6441 170.304 83.5081C170.736 84.6492 171.316 85.7279 172.031 86.7163C172.918 87.8976 174.001 88.9187 175.231 89.7359C176.737 90.7291 178.438 91.3902 180.219 91.6753C182 91.9603 183.822 91.8627 185.562 91.389C187.59 90.8125 189.444 89.7443 190.96 88.2789L190.836 88.3054L196.49 90.487L196.772 90.5964L196.648 90.3058C195.751 88.2337 194.824 86.0973 193.881 83.9158V84.0252L194.055 83.5836C194.605 82.1378 194.878 80.6014 194.861 79.0544C194.873 77.5542 194.618 76.0639 194.107 74.6534C193.15 72.0273 191.362 69.7862 189.015 68.2709C187.956 67.5796 186.797 67.0575 185.578 66.7234C185.289 66.632 184.994 66.5627 184.696 66.5159C184.402 66.463 184.111 66.3875 183.817 66.3611C183.241 66.2894 182.66 66.2567 182.08 66.263C180.974 66.2677 179.874 66.4174 178.808 66.7083C177.821 66.9891 176.87 67.387 175.977 67.8935C174.414 68.7739 173.056 69.9768 171.993 71.4226C171.183 72.5335 170.556 73.7669 170.135 75.0762C170.056 75.3479 169.98 75.6083 169.912 75.831C169.852 76.0586 169.805 76.2891 169.769 76.5217C169.688 76.882 169.635 77.2479 169.611 77.6163C169.588 77.9069 169.573 78.1296 169.562 78.2957C169.546 78.3777 169.541 78.4615 169.547 78.5448Z" fill="#263238"/>
<g clip-path="url(#clip0)">
<path d="M117.454 160.818L117.192 157.524C118.048 157.289 118.646 156.471 118.573 155.55C118.49 154.509 117.582 153.731 116.548 153.814C115.513 153.896 114.74 154.808 114.823 155.849C114.896 156.768 115.616 157.483 116.496 157.579L116.758 160.873C115.904 161.108 115.306 161.926 115.379 162.847C115.395 163.049 115.443 163.241 115.518 163.42L113.729 164.594C113.429 164.28 113.023 164.073 112.575 164.024L112.313 160.728C113.168 160.494 113.765 159.675 113.692 158.755C113.609 157.715 112.701 156.936 111.666 157.018C110.633 157.1 109.859 158.012 109.941 159.053C110.015 159.974 110.735 160.687 111.615 160.784L111.877 164.078C111.443 164.197 111.074 164.466 110.827 164.823L108.877 163.946C108.922 163.759 108.94 163.561 108.924 163.359C108.85 162.439 108.13 161.724 107.25 161.628L106.988 158.336C107.842 158.101 108.44 157.283 108.367 156.362C108.284 155.321 107.375 154.543 106.342 154.626C105.309 154.708 104.534 155.62 104.617 156.66C104.69 157.58 105.41 158.295 106.29 158.391L106.552 161.685C105.698 161.92 105.1 162.738 105.173 163.659C105.256 164.7 106.164 165.478 107.199 165.395C107.782 165.349 108.282 165.038 108.593 164.589L110.544 165.465C110.5 165.652 110.484 165.85 110.5 166.051C110.502 166.075 110.507 166.098 110.509 166.123L107.62 167.126C107.321 166.377 106.563 165.877 105.725 165.944C104.809 166.017 104.1 166.74 104.005 167.625L100.728 167.886C100.494 167.027 99.6801 166.425 98.7643 166.498C97.731 166.578 96.9581 167.492 97.0408 168.531C97.1234 169.57 98.0311 170.35 99.0659 170.267C99.98 170.195 100.69 169.471 100.785 168.584L104.063 168.323C104.296 169.182 105.111 169.786 106.026 169.714C106.228 169.698 106.418 169.648 106.596 169.575L107.765 171.374C107.453 171.676 107.246 172.085 107.199 172.535L103.92 172.796C103.687 171.937 102.873 171.334 101.957 171.407C100.924 171.489 100.149 172.401 100.232 173.442C100.314 174.483 101.222 175.261 102.257 175.179C103.171 175.106 103.881 174.382 103.976 173.497L107.252 173.237C107.371 173.674 107.639 174.044 107.994 174.293L107.124 176.255C106.938 176.21 106.741 176.192 106.54 176.208C105.624 176.281 104.915 177.004 104.82 177.889L101.545 178.15C101.311 177.289 100.497 176.689 99.5809 176.761C98.5477 176.844 97.7747 177.756 97.8573 178.795C97.94 179.834 98.8476 180.614 99.8825 180.531C100.797 180.458 101.507 179.735 101.602 178.85L104.879 178.589C105.113 179.448 105.927 180.05 106.843 179.977C107.876 179.895 108.651 178.983 108.568 177.942C108.521 177.355 108.211 176.852 107.764 176.54L108.635 174.578C108.82 174.623 109.018 174.641 109.219 174.625C110.254 174.543 111.027 173.631 110.944 172.59C110.861 171.549 109.954 170.771 108.919 170.853C108.718 170.869 108.527 170.917 108.349 170.992L107.18 169.192C107.54 168.845 107.758 168.354 107.756 167.822L110.719 166.794C111.062 167.436 111.758 167.849 112.527 167.788C113.228 167.732 113.807 167.295 114.084 166.696L118.199 167.425L118.32 166.733L114.252 166.014C114.257 165.929 114.259 165.842 114.252 165.754C114.236 165.552 114.188 165.36 114.113 165.181L115.902 164.007C116.279 164.401 116.822 164.63 117.406 164.583C118.441 164.501 119.214 163.587 119.131 162.548C119.056 161.628 118.336 160.914 117.454 160.818Z" fill="#A8A8A8"/>
<path d="M112.607 168.584C112.308 168.608 112.085 168.872 112.109 169.162L112.185 183.949C112.219 184.367 113.847 184.365 113.862 184.363C113.877 184.362 115.446 184.097 115.41 183.668L113.192 169.086C113.168 168.785 112.906 168.56 112.607 168.584Z" fill="#A8A8A8"/>
<path d="M126.731 174.718C125.921 174.783 125.284 175.39 125.141 176.155L121.572 176.439C121.309 175.705 120.584 175.207 119.772 175.272C119.675 175.28 119.582 175.297 119.489 175.32L118.118 173.212C118.285 172.995 118.401 172.74 118.452 172.463L122.021 172.179C122.283 172.913 123.008 173.41 123.82 173.346C124.791 173.269 125.517 172.415 125.439 171.437C125.361 170.46 124.51 169.73 123.539 169.807C122.727 169.872 122.091 170.477 121.946 171.244L118.377 171.528C118.282 171.262 118.127 171.029 117.929 170.841L118.95 168.541C119.043 168.549 119.14 168.551 119.237 168.544C120.049 168.479 120.684 167.873 120.829 167.106L124.398 166.823C124.663 167.557 125.386 168.054 126.196 167.99C127.167 167.913 127.892 167.057 127.814 166.081C127.737 165.104 126.885 164.374 125.914 164.451C125.104 164.516 124.467 165.121 124.324 165.888L120.755 166.172C120.492 165.438 119.767 164.94 118.955 165.005C117.984 165.082 117.259 165.937 117.337 166.914C117.373 167.371 117.581 167.772 117.887 168.064L116.867 170.362C116.773 170.354 116.677 170.351 116.58 170.359C115.608 170.436 114.883 171.29 114.961 172.268C115.039 173.245 115.89 173.975 116.861 173.898C116.958 173.89 117.052 173.872 117.144 173.85L118.515 175.958C118.259 176.294 118.117 176.723 118.153 177.18C118.231 178.156 119.083 178.886 120.054 178.809C120.865 178.745 121.501 178.137 121.646 177.372L125.215 177.088C125.479 177.822 126.202 178.32 127.012 178.256C127.984 178.178 128.709 177.323 128.631 176.346C128.553 175.37 127.702 174.641 126.731 174.718Z" fill="#D1E3F2"/>
</g>
<defs>
<clipPath id="clip0">
<rect width="30.8709" height="30.2409" fill="white" transform="translate(96 155.448) rotate(-4.54861)"/>
</clipPath>
</defs>
</svg>
