<svg width="93" height="93" viewBox="0 0 93 93" fill="none" xmlns="http://www.w3.org/2000/svg">
<circle cx="46.5" cy="46.5" r="46" fill="#D1E3F2"/>
<g clip-path="url(#clip0)">
<path d="M74.0556 29.2919H60.2778V22.4087C60.2778 20.5051 58.7385 18.9671 56.8333 18.9671H36.1667C34.2615 18.9671 32.7222 20.5051 32.7222 22.4087V29.2919H18.9444C17.0392 29.2919 15.5 30.8299 15.5 32.7335V72.3121C15.5 73.2585 16.275 74.0329 17.2222 74.0329H75.7778C76.725 74.0329 77.5 73.2585 77.5 72.3121V32.7335C77.5 30.8299 75.9608 29.2919 74.0556 29.2919ZM32.7222 65.8591C32.7222 66.5689 32.141 67.1497 31.4306 67.1497H27.125C26.4146 67.1497 25.8333 66.5689 25.8333 65.8591V61.557C25.8333 60.8472 26.4146 60.2664 27.125 60.2664H31.4306C32.141 60.2664 32.7222 60.8472 32.7222 61.557V65.8591ZM32.7222 52.0926C32.7222 52.8024 32.141 53.3832 31.4306 53.3832H27.125C26.4146 53.3832 25.8333 52.8024 25.8333 52.0926V47.7906C25.8333 47.0808 26.4146 46.5 27.125 46.5H31.4306C32.141 46.5 32.7222 47.0808 32.7222 47.7906V52.0926ZM49.9444 65.8591C49.9444 66.5689 49.3632 67.1497 48.6528 67.1497H44.3472C43.6368 67.1497 43.0556 66.5689 43.0556 65.8591V61.557C43.0556 60.8472 43.6368 60.2664 44.3472 60.2664H48.6528C49.3632 60.2664 49.9444 60.8472 49.9444 61.557V65.8591ZM49.9444 52.0926C49.9444 52.8024 49.3632 53.3832 48.6528 53.3832H44.3472C43.6368 53.3832 43.0556 52.8024 43.0556 52.0926V47.7906C43.0556 47.0808 43.6368 46.5 44.3472 46.5H48.6528C49.3632 46.5 49.9444 47.0808 49.9444 47.7906V52.0926ZM51.6667 33.8091C51.6667 34.164 51.376 34.4544 51.0208 34.4544H48.2222V37.2507C48.2222 37.6056 47.9316 37.896 47.5764 37.896H45.4236C45.0684 37.896 44.7778 37.6056 44.7778 37.2507V34.4544H41.9792C41.624 34.4544 41.3333 34.164 41.3333 33.8091V31.658C41.3333 31.3031 41.624 31.0127 41.9792 31.0127H44.7778V28.2164C44.7778 27.8615 45.0684 27.5711 45.4236 27.5711H47.5764C47.9316 27.5711 48.2222 27.8615 48.2222 28.2164V31.0127H51.0208C51.376 31.0127 51.6667 31.3031 51.6667 31.658V33.8091ZM67.1667 65.8591C67.1667 66.5689 66.5854 67.1497 65.875 67.1497H61.5694C60.859 67.1497 60.2778 66.5689 60.2778 65.8591V61.557C60.2778 60.8472 60.859 60.2664 61.5694 60.2664H65.875C66.5854 60.2664 67.1667 60.8472 67.1667 61.557V65.8591ZM67.1667 52.0926C67.1667 52.8024 66.5854 53.3832 65.875 53.3832H61.5694C60.859 53.3832 60.2778 52.8024 60.2778 52.0926V47.7906C60.2778 47.0808 60.859 46.5 61.5694 46.5H65.875C66.5854 46.5 67.1667 47.0808 67.1667 47.7906V52.0926Z" fill="#4A92CE"/>
</g>
<defs>
<clipPath id="clip0">
<rect width="62" height="62" fill="white" transform="translate(15.5 15.5)"/>
</clipPath>
</defs>
</svg>
