<svg width="93" height="92" viewBox="0 0 93 92" fill="none" xmlns="http://www.w3.org/2000/svg">
<circle cx="46.5" cy="46" r="46" fill="#D1E3F2"/>
<path d="M75.5625 30.5001V32.4376C75.5625 32.6946 75.4604 32.941 75.2788 33.1226C75.0971 33.3043 74.8507 33.4064 74.5938 33.4064H71.6875V34.8595C71.6875 35.662 71.0369 36.3126 70.2344 36.3126H22.7656C21.9631 36.3126 21.3125 35.662 21.3125 34.8595V33.4064H18.4062C18.1493 33.4064 17.9029 33.3043 17.7212 33.1226C17.5396 32.941 17.4375 32.6946 17.4375 32.4376V30.5001C17.4375 30.3085 17.4944 30.1211 17.6009 29.9618C17.7074 29.8024 17.8587 29.6783 18.0358 29.605L46.1296 18.9487C46.3668 18.8505 46.6332 18.8505 46.8704 18.9487L74.9642 29.605C75.1413 29.6783 75.2926 29.8024 75.3991 29.9618C75.5056 30.1211 75.5625 30.3085 75.5625 30.5001ZM72.6562 67.3126H20.3438C18.7387 67.3126 17.4375 68.6138 17.4375 70.2189V72.1564C17.4375 72.4133 17.5396 72.6597 17.7212 72.8414C17.9029 73.0231 18.1493 73.1251 18.4062 73.1251H74.5938C74.8507 73.1251 75.0971 73.0231 75.2788 72.8414C75.4604 72.6597 75.5625 72.4133 75.5625 72.1564V70.2189C75.5625 68.6138 74.2613 67.3126 72.6562 67.3126ZM27.125 38.2501V61.5001H22.7656C21.9631 61.5001 21.3125 62.1508 21.3125 62.9532V65.3751H71.6875V62.9532C71.6875 62.1508 71.0369 61.5001 70.2344 61.5001H65.875V38.2501H58.125V61.5001H50.375V38.2501H42.625V61.5001H34.875V38.2501H27.125Z" fill="#4A92CE"/>
</svg>
